<?xml version="1.0" standalone="no"?>
<!DOCTYPE svg PUBLIC "-//W3C//DTD SVG 20010904//EN"
 "http://www.w3.org/TR/2001/REC-SVG-20010904/DTD/svg10.dtd">
<svg version="1.0" xmlns="http://www.w3.org/2000/svg"
 width="600.000000pt" height="600.000000pt" viewBox="0 0 600.000000 600.000000"
 preserveAspectRatio="xMidYMid meet">

<g transform="translate(0.000000,600.000000) scale(0.100000,-0.100000)"
fill="" stroke="none">
<path d="M821 5157 c-64 -33 -91 -122 -91 -310 0 -206 45 -548 115 -873 14
-66 33 -153 42 -196 l17 -76 -41 -89 c-109 -235 -157 -479 -170 -858 -10 -304
21 -508 105 -703 41 -95 126 -239 174 -295 16 -18 7 -1 -18 38 -41 62 -124
216 -124 230 0 2 25 -11 56 -31 242 -155 952 -348 1514 -411 122 -14 239 -18
555 -18 395 1 565 9 805 41 145 19 160 23 160 40 0 17 5 17 31 3 46 -24 597
115 895 227 143 53 243 104 237 119 -3 9 2 12 14 9 10 -3 29 4 42 15 13 12 27
19 29 16 3 -3 -24 -64 -60 -135 -36 -72 -64 -130 -63 -130 9 0 92 143 130 223
83 177 112 316 122 592 7 197 -7 403 -42 610 -26 156 -66 286 -128 418 l-41
89 17 76 c9 43 28 131 42 197 77 356 119 701 112 909 -5 158 -15 203 -57 249
-26 30 -33 32 -92 32 -69 0 -182 -30 -173 -45 3 -5 0 -7 -8 -5 -48 19 -516
-263 -854 -513 l-123 -91 -102 9 c-401 35 -1206 38 -1621 6 l-189 -14 -147
108 c-543 398 -946 601 -1070 537z m159 -306 c25 -15 126 -92 225 -170 99 -79
240 -189 314 -244 l134 -100 -149 -76 c-82 -42 -170 -90 -195 -108 -26 -18
-105 -93 -176 -168 l-130 -135 -11 37 c-17 57 -79 367 -108 537 -27 167 -41
343 -30 399 14 73 42 79 126 28z m4126 25 c17 -13 19 -27 18 -173 -1 -136 -7
-186 -38 -353 -34 -183 -75 -378 -97 -462 l-10 -38 -152 154 c-117 118 -169
163 -226 195 -57 32 -76 39 -82 29 -7 -10 -9 -8 -9 5 0 13 -26 30 -91 60 l-92
42 177 134 c97 74 243 187 323 252 124 99 228 169 253 169 3 0 15 -6 26 -14z
m59 -395 c3 -5 1 -12 -5 -16 -5 -3 -10 1 -10 9 0 18 6 21 15 7z m-3138 -513
c-3 -7 -5 -2 -5 12 0 14 2 19 5 13 2 -7 2 -19 0 -25z m1630 -44 c-3 -3 -12 -4
-19 -1 -8 3 -5 6 6 6 11 1 17 -2 13 -5z m857 -28 c176 -23 353 -198 447 -441
17 -44 43 -129 57 -190 23 -97 26 -132 26 -290 0 -200 -17 -310 -74 -468 -60
-164 -177 -324 -290 -397 -182 -117 -403 -82 -564 89 -264 284 -342 838 -176
1256 97 244 256 403 438 438 34 6 62 16 62 21 0 4 6 4 13 -1 6 -6 34 -13 61
-17z m-2811 -34 c109 -51 228 -175 295 -308 42 -83 86 -213 108 -319 28 -132
26 -413 -3 -545 -110 -494 -433 -757 -745 -608 -198 95 -343 326 -404 643 -24
121 -24 366 -1 492 50 270 186 510 348 614 122 78 276 90 402 31z m1764 -268
c-3 -3 -12 -4 -19 -1 -8 3 -5 6 6 6 11 1 17 -2 13 -5z m-97 -308 c0 -16 -24
-38 -33 -30 -8 9 11 44 23 44 6 0 10 -6 10 -14z m-2470 -776 c0 -5 -4 -10 -10
-10 -5 0 -10 5 -10 10 0 6 5 10 10 10 6 0 10 -4 10 -10z m124 -185 c4 -10 -1
-15 -16 -15 -17 0 -18 2 -8 15 7 8 14 15 15 15 2 0 5 -7 9 -15z m2096 5 c0 -5
-5 -10 -11 -10 -5 0 -7 5 -4 10 3 6 8 10 11 10 2 0 4 -4 4 -10z m-2270 -50 c0
-5 -5 -10 -11 -10 -5 0 -7 5 -4 10 3 6 8 10 11 10 2 0 4 -4 4 -10z m215 -90
c3 -5 1 -10 -4 -10 -6 0 -11 5 -11 10 0 6 2 10 4 10 3 0 8 -4 11 -10z m2775
-250 c0 -5 -4 -10 -10 -10 -5 0 -10 5 -10 10 0 6 5 10 10 10 6 0 10 -4 10 -10z
m-2220 -120 c0 -5 -4 -10 -10 -10 -5 0 -10 5 -10 10 0 6 5 10 10 10 6 0 10 -4
10 -10z"/>
<path d="M2780 1420 c0 -6 15 -26 33 -46 41 -46 100 -56 149 -27 32 19 34 19
63 1 17 -10 47 -18 69 -18 31 0 45 7 77 39 22 21 39 44 39 50 0 6 -19 -9 -43
-34 -50 -52 -82 -57 -136 -24 l-34 21 -38 -21 c-58 -33 -86 -28 -136 24 -24
25 -43 41 -43 35z"/>
</g>
</svg>
